<?xml version="1.0" standalone="no"?><!DOCTYPE svg PUBLIC "-//W3C//DTD SVG 1.1//EN" "http://www.w3.org/Graphics/SVG/1.1/DTD/svg11.dtd"><svg t="1708834649795" class="icon" viewBox="0 0 1025 1024" version="1.1" xmlns="http://www.w3.org/2000/svg" p-id="5948" width="64.0625" height="64" xmlns:xlink="http://www.w3.org/1999/xlink"><path d="M653.335965 0.93839H371.674609C167.827435 0.93839 1.010574 167.755252 1.010574 371.602425v281.73354c0 203.847173 166.816862 370.664035 370.664035 370.664035h281.73354c203.847173 0 370.664035-166.816862 370.664035-370.664035V371.674609c0-203.919357-166.816862-370.736219-370.736219-370.736219z m87.486818 728.046243c0 19.273086-14.797688 34.070774-33.348936 34.070774H318.980403c-18.551248 0-33.348936-15.59171-33.348935-34.070774V468.040039c0-11.83815 5.919075-22.954462 16.313548-28.945721l194.246722-114.916678c10.394473-5.919075 22.954462-5.919075 33.348936 0l194.246722 114.916678c9.672635 5.919075 16.313549 17.035387 17.035387 28.945721v260.944594z m61.572818-303.244326c-5.919075 11.116312-19.273086 14.797688-29.667559 8.878613L519.940223 283.393769c-4.475398-2.959538-9.672635-2.959538-14.07585 0L253.004371 434.691104c-10.394473 5.919075-23.748484 2.237699-29.66756-8.156774-5.919075-11.116312-2.237699-24.470323 8.156774-30.389398l269.823206-161.619625c3.681376-2.237699 7.434936-2.959538 11.116312-2.959538s7.434936 0.721838 11.116312 2.959538l269.823206 161.619625c10.466657 5.919075 14.220217 19.273086 9.02298 29.595375z" fill="#ED8E2F" p-id="5949"></path><path d="M412.386296 591.113492h-38.546172c-11.83815 0-20.788947-9.672635-20.788947-20.788947v-38.546172c0-11.83815 9.672635-20.788947 20.788947-20.788947h38.546172c11.83815 0 20.788947 9.672635 20.788947 20.788947v38.546172c0 11.116312-8.878613 20.788947-20.788947 20.788947zM412.386296 708.195686h-38.546172c-11.83815 0-20.788947-9.672635-20.788947-20.788947V648.932751c0-11.83815 9.672635-20.788947 20.788947-20.788947h38.546172c11.83815 0 20.788947 9.672635 20.788947 20.788947v38.546172c0 11.83815-8.878613 20.716763-20.788947 20.716763zM539.935147 708.195686h-38.546172c-11.83815 0-20.788947-9.672635-20.788947-20.788947V648.932751c0-11.83815 9.672635-20.788947 20.788947-20.788947h38.546172c11.83815 0 20.788947 9.672635 20.788947 20.788947v38.546172c0 11.83815-8.950797 20.716763-20.788947 20.716763z" fill="#ED8E2F" p-id="5950"></path></svg>