<?xml version="1.0" standalone="no"?><!DOCTYPE svg PUBLIC "-//W3C//DTD SVG 1.1//EN" "http://www.w3.org/Graphics/SVG/1.1/DTD/svg11.dtd"><svg t="1682481021221" class="icon" viewBox="0 0 1024 1024" version="1.1" xmlns="http://www.w3.org/2000/svg" p-id="3162" xmlns:xlink="http://www.w3.org/1999/xlink" width="200" height="200"><path d="M450.17836 225.935A112.99 112.99 0 1 0 454.33836 0.052a112.99 112.99 0 0 0-4.16 225.883zM322.91736 677.511s-135.678-66.271-189.789-78.879a22.592 22.592 0 0 0-26.783 15.968C89.67336 675.815 21.54636 901.378 0.81136 975.969a22.464 22.464 0 0 0 21.727 28.447h39.584a22.24 22.24 0 0 0 20.703-13.823c22.816-54.687 89.534-255.707 99.646-255.707 75.839-0.48 139.614 97.534 137.15 126.91-3.168 36.222-23.872 79.87-40.064 109.213a22.56 22.56 0 0 0 19.68 33.407h45.343c7.872 0 15.296-4.16 19.328-11.007 40.927-68.863 54.559-111.358 54.687-136.926 0.512-63.455-61.343-163.133-95.678-178.972z" p-id="3163"></path><path d="M1010.61536 956.161L821.30736 597.864c-30.751-53.215-94.75-15.52-125.438 37.695l-82.014 114.878-43.423-41.055a58.943 58.943 0 0 0-0.384-19.136c-13.952-81.118-75.935-358.649-121.278-403.224a17.888 17.888 0 0 0-5.056-3.584l-140.349-74.366a44.543 44.543 0 0 0-23.2-5.184c-48.927 2.368-160.413 18.687-196.156 24.063a22.944 22.944 0 0 0-16.672 11.808c-11.583 22.272-44.223 77.054-62.334 119.806a44.8 44.8 0 0 0 9.695 49.407l24.192 19.551 83.806 64.671c7.424 5.76 10.56 15.52 7.744 24.544-7.392 23.487-0.768 6.4-3.584 17.44a22.464 22.464 0 0 0 14.048 26.655c38.463 14.048 141.31 68.19 180.893 79.422 11.135 3.136 9.215-8.224 13.503-18.911l-4.384-5.856 246.812 188.988-98.462 167.485a22.496 22.496 0 0 0 19.455 33.76h482.615a33.663 33.663 0 0 0 29.28-50.56z m-807.376-625.94c-10.816 19.904-20.704 43.071-33.535 76.159a22.464 22.464 0 0 1-36.48 8.096L88.36136 372.3c-2.24-1.92 16.736-42.975 28.48-64.67a22.432 22.432 0 0 1 20.48-11.808l46.91 1.344c16.64 0.32 26.976 18.304 19.008 33.055zM358.37136 547.785l30.143-74.367c7.872-19.68 36.096-18.56 42.4 1.696 16.191 52.575 39.039 131.87 63.326 185.053L358.37136 547.785z" p-id="3164"></path></svg>